<?xml version="1.0" standalone="no"?><svg xmlns="http://www.w3.org/2000/svg" viewBox="0 0 1440 320"><path fill="#ffffff" fill-opacity="1" d="M0,192L24,192C48,192,96,192,144,208C192,224,240,256,288,277.3C336,299,384,309,432,309.3C480,309,528,299,576,282.7C624,267,672,245,720,250.7C768,256,816,288,864,298.7C912,309,960,299,1008,272C1056,245,1104,203,1152,202.7C1200,203,1248,245,1296,245.3C1344,245,1392,203,1416,181.3L1440,160L1440,320L1416,320C1392,320,1344,320,1296,320C1248,320,1200,320,1152,320C1104,320,1056,320,1008,320C960,320,912,320,864,320C816,320,768,320,720,320C672,320,624,320,576,320C528,320,480,320,432,320C384,320,336,320,288,320C240,320,192,320,144,320C96,320,48,320,24,320L0,320Z"></path></svg>